<svg version="1.1" xmlns="http://www.w3.org/2000/svg" width="512" height="512" viewBox="0 0 512 512">
  <g transform="translate(0,512) scale(0.1,-0.1)" fill="#000000">
    <path d="M1396 3345 c-297 -62 -515 -230 -617 -476 -86 -209 -76 -466 26 -668 103 -206 285 -345 535 -412 115 -30 329 -33 440 -5 88 22 242 91 308 139 69 50 641 437 645 437 3 0 7 -14 11 -31 11 -56 82 -193 132 -255 210 -261 575 -372 921 -279 305 81 523 306 585 601 37 179 7 385 -80 548 -47 87 -173 222 -258 276 -72 45 -179 91 -276 117 -96 27 -336 24 -443 -6 -132 -35 -210 -80 -575 -326 -192 -129 -353 -235 -358 -235 -6 0 -13 12 -16 28 -4 15 -27 69 -53 120 -34 69 -64 113 -122 174 -117 125 -236 195 -416 243 -85 23 -301 28 -389 10z m332 -429 c227 -117 281 -436 106 -625 -78 -85 -151 -116 -269 -116 -82 0 -97 3 -157 33 -225 110 -287 404 -130 610 31 41 99 89 161 114 72 29 218 21 289 -16z m1982 4 c112 -58 178 -144 206 -266 31 -141 0 -264 -92 -363 -78 -85 -151 -116 -269 -116 -119 1 -191 32 -269 116 -76 82 -100 146 -100 274 -1 88 2 107 26 157 50 107 113 168 217 210 68 27 218 21 281 -12z"/>
  </g>
</svg>
